<mxfile host="app.diagrams.net" modified="2023-12-12T12:35:04.946Z" agent="Mozilla/5.0 (Macintosh; Intel Mac OS X 10_15_7) AppleWebKit/537.36 (KHTML, like Gecko) Chrome/119.0.0.0 Safari/537.36" etag="-0m5uoeYgX3WebKmeW4r" version="22.1.7" type="device">
  <diagram name="Page-1" id="-yVWf5U5GomzzCzLPF7r">
    <mxGraphModel dx="187" dy="-507" grid="1" gridSize="10" guides="1" tooltips="1" connect="1" arrows="1" fold="1" page="1" pageScale="1" pageWidth="827" pageHeight="1169" math="0" shadow="0">
      <root>
        <mxCell id="0" />
        <mxCell id="1" parent="0" />
        <mxCell id="l2Qq47zXoi9bIppQbub_-1" value="" style="shape=flexArrow;endArrow=classic;html=1;rounded=0;strokeWidth=3;" parent="1" edge="1">
          <mxGeometry width="50" height="50" relative="1" as="geometry">
            <mxPoint x="1160" y="1480" as="sourcePoint" />
            <mxPoint x="1200" y="1479.5" as="targetPoint" />
          </mxGeometry>
        </mxCell>
        <mxCell id="l2Qq47zXoi9bIppQbub_-2" value="Schedule&#xa;File Import" style="shape=image;verticalLabelPosition=bottom;labelBackgroundColor=none;verticalAlign=top;aspect=fixed;imageAspect=0;image=data:image/svg+xml,PHN2ZyB4bWxucz0iaHR0cDovL3d3dy53My5vcmcvMjAwMC9zdmciIGZpbGw9Im5vbmUiIHZpZXdCb3g9IjAgMCAxNiAxNiIgaGVpZ2h0PSI4MDBweCIgd2lkdGg9IjgwMHB4Ij4mI3hhOyAgPHBhdGggZmlsbD0iIzAwMDAwMCIgZD0iTTUuNzkgMS41NzRoMy44NjZjLjE0IDAgLjI1Mi4xMS4yNTIuMjQ2djUuMTg2YS4yNS4yNSAwIDAxLS4yNTIuMjQ2SDYuMzQ0Yy0uOTc1IDAtMS43NjYuNzctMS43NjYgMS43MnYxLjE2MmEuMjUuMjUgMCAwMS0uMjUzLjI0M0gxLjg2N2EuMjUuMjUgMCAwMS0uMjUzLS4yNDZWNi4xNzdhLjI1LjI1IDAgMDEuMjUyLS4yNDZINy45OGMuNDE4IDAgLjc1Ny0uMzMuNzU3LS43MzdhLjc0Ny43NDcgMCAwMC0uNzU3LS43MzhINS41MzdWMS44MmEuMjUuMjUgMCAwMS4yNTMtLjI0NnptNS42MzIgMi41OTJWMS44MmMwLS45NS0uNzktMS43Mi0xLjc2Ni0xLjcySDUuNzljLS45NzYgMC0xLjc2Ny43Ny0xLjc2NyAxLjcydjIuNjM2SDEuODY3Qy44OSA0LjQ1Ni4xIDUuMjI2LjEgNi4xNzZ2My45NTVjMCAuOTUuNzkgMS43MiAxLjc2NiAxLjcyaDIuNDZjLjA4NSAwIC4xNy0uMDA2LjI1Mi0uMDE3djIuMzQ2YzAgLjk1Ljc5IDEuNzIgMS43NjYgMS43MmgzLjg2NmMuOTc2IDAgMS43NjctLjc3IDEuNzY3LTEuNzJ2LTIuNjM2aDIuMTU2Yy45NzYgMCAxLjc2Ny0uNzcgMS43NjctMS43MlY1Ljg2OGMwLS45NS0uNzktMS43Mi0xLjc2Ny0xLjcyaC0yLjQ1OGMtLjA4NiAwLS4xNy4wMDUtLjI1My4wMTd6bS01LjMzIDUuOTc0VjguOTk0YS4yNS4yNSAwIDAxLjI1Mi0uMjQ2aDMuMzEyYy45NzYgMCAxLjc2Ni0uNzcgMS43NjYtMS43MlY1Ljg2NmEuMjUuMjUgMCAwMS4yNTMtLjI0M2gyLjQ1OGMuMTQgMCAuMjUzLjExLjI1My4yNDZ2My45NTRhLjI1LjI1IDAgMDEtLjI1Mi4yNDZIOC4wMmEuNzQ3Ljc0NyAwIDAwLS43NTcuNzM3YzAgLjQwOC4zMzkuNzM4Ljc1Ny43MzhoMi40NDJ2Mi42MzZhLjI1LjI1IDAgMDEtLjI1My4yNDZINi4zNDRhLjI1LjI1IDAgMDEtLjI1Mi0uMjQ2di00LjA0eiIvPiYjeGE7PC9zdmc+;" parent="1" vertex="1">
          <mxGeometry x="1230" y="1494" width="34" height="34" as="geometry" />
        </mxCell>
        <mxCell id="l2Qq47zXoi9bIppQbub_-3" value="Web Application&#xa;Database&#xa;(Postgres/TimescaleDB)" style="shape=image;verticalLabelPosition=bottom;labelBackgroundColor=none;verticalAlign=top;aspect=fixed;imageAspect=0;image=data:image/svg+xml,PHN2ZyB4bWxucz0iaHR0cDovL3d3dy53My5vcmcvMjAwMC9zdmciIHZlcnNpb249IjEuMSIgdmlld0JveD0iMCAwIDMyIDMyIiBoZWlnaHQ9IjgwMHB4IiB3aWR0aD0iODAwcHgiIGZpbGw9IiMwMDAwMDAiPiYjeGE7PHRpdGxlPmRhdGFiYXNlPC90aXRsZT4mI3hhOzxwYXRoIGQ9Ik00IDI2LjAxNnEwIDEuNjMyIDEuNiAzLjAwOHQ0LjM4NCAyLjE3NiA2LjAxNiAwLjggNi4wMTYtMC44IDQuMzg0LTIuMTc2IDEuNi0zLjAwOHYtMy4zOTJxMCAxLjYzMi0xLjYzMiAyLjg4dC00LjMyIDEuODU2LTYuMDQ4IDAuNjQtNi4wNDgtMC42NC00LjMyLTEuODU2LTEuNjMyLTIuODh2My4zOTJ6TTQgMjBxMCAxLjYzMiAxLjYgMy4wMDh0NC4zODQgMi4yMDggNi4wMTYgMC44IDYuMDE2LTAuOCA0LjM4NC0yLjIwOCAxLjYtMy4wMDh2LTMuMzZxMCAxLjYtMS42MzIgMi44NDh0LTQuMzIgMS44ODgtNi4wNDggMC42NC02LjA0OC0wLjY0LTQuMzItMS44ODgtMS42MzItMi44NDh2My4zNnpNNCAxNC4wMTZxMCAxLjYzMiAxLjYgMy4wMDh0NC4zODQgMi4xNzYgNi4wMTYgMC44IDYuMDE2LTAuOCA0LjM4NC0yLjE3NiAxLjYtMy4wMDh2LTMuMzkycTAgMS42MzItMS42MzIgMi44OHQtNC4zMiAxLjg1Ni02LjA0OCAwLjY0LTYuMDQ4LTAuNjQtNC4zMi0xLjg1Ni0xLjYzMi0yLjg4djMuMzkyek00IDhxMCAxLjYzMiAxLjYgMy4wMDh0NC4zODQgMi4yMDggNi4wMTYgMC44IDYuMDE2LTAuOCA0LjM4NC0yLjIwOCAxLjYtMy4wMDh2LTEuOTg0cTAtMS42MzItMS42LTMuMDA4dC00LjM4NC0yLjE3Ni02LjAxNi0wLjgzMi02LjAxNiAwLjgzMi00LjM4NCAyLjE3Ni0xLjYgMy4wMDh2MS45ODR6Ii8+JiN4YTs8L3N2Zz4=;" parent="1" vertex="1">
          <mxGeometry x="1680" y="1494" width="34" height="34" as="geometry" />
        </mxCell>
        <mxCell id="l2Qq47zXoi9bIppQbub_-4" value="" style="shape=flexArrow;endArrow=classic;startArrow=classic;html=1;rounded=0;entryX=0.75;entryY=1;entryDx=0;entryDy=0;strokeWidth=3;" parent="1" edge="1">
          <mxGeometry width="100" height="100" relative="1" as="geometry">
            <mxPoint x="1580" y="1510.5" as="sourcePoint" />
            <mxPoint x="1640.5" y="1510.5" as="targetPoint" />
          </mxGeometry>
        </mxCell>
        <mxCell id="l2Qq47zXoi9bIppQbub_-5" value="Web&#xa;Application" style="shape=image;verticalLabelPosition=bottom;labelBackgroundColor=none;verticalAlign=top;aspect=fixed;imageAspect=0;image=data:image/svg+xml,PHN2ZyB4bWxucz0iaHR0cDovL3d3dy53My5vcmcvMjAwMC9zdmciIGZpbGw9Im5vbmUiIHZpZXdCb3g9IjAgMCAxNiAxNiIgaGVpZ2h0PSI4MDBweCIgd2lkdGg9IjgwMHB4Ij4mI3hhOyAgPHBhdGggZmlsbD0iIzAwMDAwMCIgZD0iTTUuNzkgMS41NzRoMy44NjZjLjE0IDAgLjI1Mi4xMS4yNTIuMjQ2djUuMTg2YS4yNS4yNSAwIDAxLS4yNTIuMjQ2SDYuMzQ0Yy0uOTc1IDAtMS43NjYuNzctMS43NjYgMS43MnYxLjE2MmEuMjUuMjUgMCAwMS0uMjUzLjI0M0gxLjg2N2EuMjUuMjUgMCAwMS0uMjUzLS4yNDZWNi4xNzdhLjI1LjI1IDAgMDEuMjUyLS4yNDZINy45OGMuNDE4IDAgLjc1Ny0uMzMuNzU3LS43MzdhLjc0Ny43NDcgMCAwMC0uNzU3LS43MzhINS41MzdWMS44MmEuMjUuMjUgMCAwMS4yNTMtLjI0NnptNS42MzIgMi41OTJWMS44MmMwLS45NS0uNzktMS43Mi0xLjc2Ni0xLjcySDUuNzljLS45NzYgMC0xLjc2Ny43Ny0xLjc2NyAxLjcydjIuNjM2SDEuODY3Qy44OSA0LjQ1Ni4xIDUuMjI2LjEgNi4xNzZ2My45NTVjMCAuOTUuNzkgMS43MiAxLjc2NiAxLjcyaDIuNDZjLjA4NSAwIC4xNy0uMDA2LjI1Mi0uMDE3djIuMzQ2YzAgLjk1Ljc5IDEuNzIgMS43NjYgMS43MmgzLjg2NmMuOTc2IDAgMS43NjctLjc3IDEuNzY3LTEuNzJ2LTIuNjM2aDIuMTU2Yy45NzYgMCAxLjc2Ny0uNzcgMS43NjctMS43MlY1Ljg2OGMwLS45NS0uNzktMS43Mi0xLjc2Ny0xLjcyaC0yLjQ1OGMtLjA4NiAwLS4xNy4wMDUtLjI1My4wMTd6bS01LjMzIDUuOTc0VjguOTk0YS4yNS4yNSAwIDAxLjI1Mi0uMjQ2aDMuMzEyYy45NzYgMCAxLjc2Ni0uNzcgMS43NjYtMS43MlY1Ljg2NmEuMjUuMjUgMCAwMS4yNTMtLjI0M2gyLjQ1OGMuMTQgMCAuMjUzLjExLjI1My4yNDZ2My45NTRhLjI1LjI1IDAgMDEtLjI1Mi4yNDZIOC4wMmEuNzQ3Ljc0NyAwIDAwLS43NTcuNzM3YzAgLjQwOC4zMzkuNzM4Ljc1Ny43MzhoMi40NDJ2Mi42MzZhLjI1LjI1IDAgMDEtLjI1My4yNDZINi4zNDRhLjI1LjI1IDAgMDEtLjI1Mi0uMjQ2di00LjA0eiIvPiYjeGE7PC9zdmc+;" parent="1" vertex="1">
          <mxGeometry x="1102" y="1533" width="34" height="34" as="geometry" />
        </mxCell>
        <mxCell id="l2Qq47zXoi9bIppQbub_-6" value="" style="shape=flexArrow;endArrow=classic;html=1;rounded=0;strokeWidth=3;" parent="1" edge="1">
          <mxGeometry width="50" height="50" relative="1" as="geometry">
            <mxPoint x="1040" y="1550" as="sourcePoint" />
            <mxPoint x="1080" y="1549.5" as="targetPoint" />
          </mxGeometry>
        </mxCell>
        <mxCell id="l2Qq47zXoi9bIppQbub_-7" value="User" style="shape=image;verticalLabelPosition=bottom;labelBackgroundColor=none;verticalAlign=top;aspect=fixed;imageAspect=0;image=data:image/svg+xml,PHN2ZyB4bWxucz0iaHR0cDovL3d3dy53My5vcmcvMjAwMC9zdmciIGZpbGw9Im5vbmUiIHZpZXdCb3g9IjAgMCAyNCAyNCIgaGVpZ2h0PSI4MDBweCIgd2lkdGg9IjgwMHB4Ij4mI3hhOzxwYXRoIHN0cm9rZS1saW5lam9pbj0icm91bmQiIHN0cm9rZS1saW5lY2FwPSJyb3VuZCIgc3Ryb2tlLXdpZHRoPSIyIiBzdHJva2U9IiMwMDAwMDAiIGQ9Ik0xMCAxOEgxNE03LjIwMDAzIDNIMTYuOEMxNy45MjAxIDMgMTguNDgwMiAzIDE4LjkwOCAzLjIxNzk5QzE5LjI4NDMgMy40MDk3MyAxOS41OTAzIDMuNzE1NjkgMTkuNzgyIDQuMDkyMDJDMjAgNC41MTk4NCAyMCA1LjA3OTkgMjAgNi4yVjExLjhDMjAgMTIuOTIwMSAyMCAxMy40ODAyIDE5Ljc4MiAxMy45MDhDMTkuNTkwMyAxNC4yODQzIDE5LjI4NDMgMTQuNTkwMyAxOC45MDggMTQuNzgyQzE4LjQ4MDIgMTUgMTcuOTIwMSAxNSAxNi44IDE1SDcuMjAwMDNDNi4wNzk5MiAxNSA1LjUxOTg3IDE1IDUuMDkyMDUgMTQuNzgyQzQuNzE1NzIgMTQuNTkwMyA0LjQwOTc2IDE0LjI4NDMgNC4yMTgwMSAxMy45MDhDNC4wMDAwMyAxMy40ODAyIDQuMDAwMDMgMTIuOTIwMSA0LjAwMDAzIDExLjhWNi4yQzQuMDAwMDMgNS4wNzk5IDQuMDAwMDMgNC41MTk4NCA0LjIxODAxIDQuMDkyMDJDNC40MDk3NiAzLjcxNTY5IDQuNzE1NzIgMy40MDk3MyA1LjA5MjA1IDMuMjE3OTlDNS41MTk4NyAzIDYuMDc5OTIgMyA3LjIwMDAzIDNaTTQuNTg4ODggMjFIMTkuNDExMkMyMC4yNjg0IDIxIDIwLjY5NyAyMSAyMC45NTUxIDIwLjgxOTVDMjEuMTgwNSAyMC42NjE4IDIxLjMzMTEgMjAuNDE4MyAyMS4zNzEzIDIwLjE0NjJDMjEuNDE3MyAxOS44MzQ1IDIxLjIyNTYgMTkuNDUxMiAyMC44NDIzIDE4LjY4NDVMMjAuMzI2NyAxNy42NTM0QzE5Ljg0NTEgMTYuNjkwMiAxOS42MDQzIDE2LjIwODYgMTkuMjQ1MSAxNS44NTY3QzE4LjkyNzQgMTUuNTQ1NiAxOC41NDQ1IDE1LjMwOSAxOC4xMjQxIDE1LjE2NEMxNy42NDg4IDE1IDE3LjExMDMgMTUgMTYuMDMzNSAxNUg3Ljk2NjU5QzYuODg5NzIgMTUgNi4zNTEyOCAxNSA1Ljg3NTkyIDE1LjE2NEM1LjQ1NTU0IDE1LjMwOSA1LjA3MjY2IDE1LjU0NTYgNC43NTQ5NyAxNS44NTY3QzQuMzk1NzMgMTYuMjA4NiA0LjE1NDkzIDE2LjY5MDIgMy42NzMzNCAxNy42NTM0TDMuMTU3OCAxOC42ODQ1QzIuNzc0NDQgMTkuNDUxMiAyLjU4Mjc2IDE5LjgzNDUgMi42Mjg4IDIwLjE0NjJDMi42NjkgMjAuNDE4MyAyLjgxOTUyIDIwLjY2MTggMy4wNDQ5MiAyMC44MTk1QzMuMzAzMDYgMjEgMy43MzE2NiAyMSA0LjU4ODg4IDIxWiIvPiYjeGE7PC9zdmc+;" parent="1" vertex="1">
          <mxGeometry x="980" y="1530" width="40" height="40" as="geometry" />
        </mxCell>
        <mxCell id="l2Qq47zXoi9bIppQbub_-8" value="" style="shape=flexArrow;endArrow=classic;html=1;rounded=0;strokeWidth=3;" parent="1" edge="1">
          <mxGeometry width="50" height="50" relative="1" as="geometry">
            <mxPoint x="1160" y="1550" as="sourcePoint" />
            <mxPoint x="1200" y="1549.5" as="targetPoint" />
          </mxGeometry>
        </mxCell>
        <mxCell id="l2Qq47zXoi9bIppQbub_-9" value="" style="group" parent="1" vertex="1" connectable="0">
          <mxGeometry x="1090" y="1450" width="60" height="69" as="geometry" />
        </mxCell>
        <mxCell id="l2Qq47zXoi9bIppQbub_-10" value="" style="shape=image;verticalLabelPosition=bottom;labelBackgroundColor=none;verticalAlign=top;aspect=fixed;imageAspect=0;image=data:image/svg+xml,PHN2ZyB4bWxucz0iaHR0cDovL3d3dy53My5vcmcvMjAwMC9zdmciIGZpbGw9Im5vbmUiIHZpZXdCb3g9IjAgMCAyNCAyNCIgaGVpZ2h0PSI4MDBweCIgd2lkdGg9IjgwMHB4Ij4mI3hhOzxnIGlkPSJGaWxlIC8gRmlsZXMiPiYjeGE7PHBhdGggc3Ryb2tlLWxpbmVqb2luPSJyb3VuZCIgc3Ryb2tlLWxpbmVjYXA9InJvdW5kIiBzdHJva2Utd2lkdGg9IjIiIHN0cm9rZT0iIzAwMDAwMCIgZD0iTTkgNkg5LjMzNjg3QzkuNTgxNDYgNiA5LjcwMzg1IDYgOS44MTg5MyA2LjAyNzYzQzkuOTIwOTcgNi4wNTIxMyAxMC4wMTg5IDYuMDkyNjMgMTAuMTA4NCA2LjE0NzQ2QzEwLjIwOTMgNi4yMDkyOCAxMC4yOTU5IDYuMjk1OTEgMTAuNDY4OCA2LjQ2ODc1TDEzLjUzMTUgOS41MzE0OUMxMy43MDQ0IDkuNzA0NDQgMTMuNzkwNCA5Ljc5MDQ0IDEzLjg1MjMgOS44OTEzNUMxMy45MDcxIDkuOTgwODIgMTMuOTQ4MiAxMC4wNzg2IDEzLjk3MjcgMTAuMTgwN0MxNCAxMC4yOTQ2IDE0IDEwLjQxNTUgMTQgMTAuNjU1MlYxOE05IDZINC41OTk2MUM0LjAzOTU2IDYgMy43NTk4MSA2IDMuNTQ1OSA2LjEwODk5QzMuMzU3NzQgNi4yMDQ4NyAzLjIwNDg3IDYuMzU3NzQgMy4xMDg5OSA2LjU0NTlDMyA2Ljc1OTgxIDMgNy4wNDAwNCAzIDcuNjAwMVYxOS40MDAxQzMgMTkuOTYwMSAzIDIwLjIzOTggMy4xMDg5OSAyMC40NTM3QzMuMjA0ODcgMjAuNjQxOSAzLjM1Nzc0IDIwLjc5NTIgMy41NDU5IDIwLjg5MTFDMy43NTk2IDIxIDQuMDM5MDIgMjEgNC41OTggMjFMMTIuNDAxMSAyMUMxMi45NiAyMSAxMy4yNDA1IDIxIDEzLjQ1NDIgMjAuODkxMUMxMy42NDIzIDIwLjc5NTIgMTMuNzk0OCAyMC42NDIxIDEzLjg5MDYgMjAuNDUzOUMxMy45OTk2IDIwLjI0IDE0IDE5Ljk1OTkgMTQgMTkuMzk5OVYxOE05IDZWOS40QzkgOS45NjAwNSA5IDEwLjIzOTkgOS4xMDg5OSAxMC40NTM4QzkuMjA0ODcgMTAuNjQyIDkuMzU3NzQgMTAuNzk1MiA5LjU0NTkgMTAuODkxMUM5Ljc1OTYgMTEgMTAuMDM5IDExIDEwLjU5OCAxMUgxMy45OTk2TTEwIDYuMDAwMVY0LjYwMDFDMTAgNC4wNDAwNSAxMCAzLjc1OTgxIDEwLjEwOSAzLjU0NTlDMTAuMjA0OSAzLjM1Nzc0IDEwLjM1NzcgMy4yMDQ4NyAxMC41NDU5IDMuMTA4OTlDMTAuNzU5OCAzIDExLjAzOTYgMyAxMS41OTk2IDNIMTZNMTYgM0gxNi4zMzY5QzE2LjU4MTUgMyAxNi43MDM4IDMgMTYuODE4OSAzLjAyNzYzQzE2LjkyMSAzLjA1MjEzIDE3LjAxODkgMy4wOTI2MyAxNy4xMDg0IDMuMTQ3NDZDMTcuMjA5MyAzLjIwOTI4IDE3LjI5NTkgMy4yOTU5MiAxNy40Njg4IDMuNDY4NzVMMjAuNTMxNSA2LjUzMTQ5QzIwLjcwNDQgNi43MDQ0NCAyMC43OTA0IDYuNzkwNDQgMjAuODUyMyA2Ljg5MTM1QzIwLjkwNzEgNi45ODA4MiAyMC45NDgyIDcuMDc4NjMgMjAuOTcyNyA3LjE4MDY2QzIxIDcuMjk0NTggMjEgNy40MTU1MiAyMSA3LjY1NTE1VjE2LjM5OTlDMjEgMTYuOTU5OSAyMC45OTk2IDE3LjI0IDIwLjg5MDYgMTcuNDUzOUMyMC43OTQ4IDE3LjY0MjEgMjAuNjQyOSAxNy43OTUyIDIwLjQ1NDggMTcuODkxMUMyMC4yNDExIDE4IDE5Ljk2MSAxOCAxOS40MDIgMThIMTRNMTYgM1Y2LjRDMTYgNi45NjAwNSAxNiA3LjIzOTg4IDE2LjEwOSA3LjQ1MzhDMTYuMjA0OSA3LjY0MTk2IDE2LjM1NzcgNy43OTUyNCAxNi41NDU5IDcuODkxMTFDMTYuNzU5NiA4IDE3LjAzOSA4IDE3LjU5OCA4SDIwLjk5OTYiIGlkPSJWZWN0b3IiLz4mI3hhOzwvZz4mI3hhOzwvc3ZnPg==;" parent="l2Qq47zXoi9bIppQbub_-9" vertex="1">
          <mxGeometry x="14" width="32" height="32" as="geometry" />
        </mxCell>
        <mxCell id="l2Qq47zXoi9bIppQbub_-11" value="Source&lt;br&gt;Files" style="text;html=1;strokeColor=none;fillColor=none;align=center;verticalAlign=middle;whiteSpace=wrap;rounded=0;" parent="l2Qq47zXoi9bIppQbub_-9" vertex="1">
          <mxGeometry y="39" width="60" height="30" as="geometry" />
        </mxCell>
        <mxCell id="l2Qq47zXoi9bIppQbub_-12" value="Task&#xa;Scheduler" style="shape=image;verticalLabelPosition=bottom;labelBackgroundColor=none;verticalAlign=top;aspect=fixed;imageAspect=0;image=data:image/svg+xml,PHN2ZyB4bWxucz0iaHR0cDovL3d3dy53My5vcmcvMjAwMC9zdmciIHZpZXdCb3g9IjAgMCAyNCAyNCIgaGVpZ2h0PSI4MDBweCIgd2lkdGg9IjgwMHB4Ij48cGF0aCBkPSJNMTAgMTcuNzQ1djEuMDkybC0uMzIzLjE0MmExLjcwMiAxLjcwMiAwIDAgMS0xLjM1MiAwTDEgMTUuNzc0di05Ljk0YTIuNDU1IDIuNDU1IDAgMCAxIDEuNDcyLTIuMjUxbDUuODUtMi41NjJhMS43IDEuNyAwIDAgMSAxLjM1MyAwTDE3IDQuMjI2VjExaC0xVjQuODhMOS4yNzYgMS45MzlhLjcwOS43MDkgMCAwIDAtLjU1NCAwTDIuODczIDQuNUExLjQ1NiAxLjQ1NiAwIDAgMCAyIDUuODM0djkuMjg1bDYuNzI0IDIuOTQ0YS43MDkuNzA5IDAgMCAwIC41NTQtLjAwMXpNMTkgMThhMiAyIDAgMSAxLTItMiAyIDIgMCAwIDEgMiAyem0tMSAwYTEgMSAwIDEgMC0xIDEgMSAxIDAgMCAwIDEtMXptMy4zNC0xLjQ4NGwxLjY2LjYzNnYxLjY1bC0xLjU4Ni41OS0uMjk2LjYyOC43MjQgMS42MjQtMS4xNjIgMS4xNy0xLjU0My0uNzEtLjY1My4yMzYtLjYzNiAxLjY2aC0xLjY1bC0uNTktMS41ODYtLjYyOC0uMjk1LTEuNjI3LjcyNy0xLjE2Ny0xLjE2Ni43MS0xLjU0My0uMjM2LS42NTMtMS42Ni0uNjM2di0xLjY1bDEuNTg2LS41OS4yOTUtLjYyOC0uNzI3LTEuNjI3IDEuMTY2LTEuMTY3IDEuNTQzLjcxLjY1My0uMjM2LjYzNi0xLjY2aDEuNjVsLjU5IDEuNTg2LjYyOC4yOTYgMS42MjQtLjcyNCAxLjE2NiAxLjE2Ny0uNzA1IDEuNTM4em0uNjYgMS4xNjlsLTEuNDI3LS41NDgtLjQzNC0xLjIwNC41ODUtMS4yOC0uNDEyLS40MTItMS4zOTcuNjIyLTEuMTU4LS41NDQtLjQ5LTEuMzE5aC0uNTgybC0uNTQ4IDEuNDI3LTEuMjA2LjQzNC0xLjI4My0uNTktLjQxLjQxMS42MjYgMS40LS41NDUgMS4xNjEtMS4zMTkuNDl2LjU4MmwxLjQyNy41NDguNDM0IDEuMjA2LS41OSAxLjI4My40MTEuNDEgMS40LS42MjYgMS4xNjEuNTQ1LjQ5IDEuMzE5aC41ODJsLjU0OC0xLjQyNyAxLjIwNi0uNDM0IDEuMjguNTg4LjQxMS0uNDEzLS42MjMtMS4zOTkuNTQ0LTEuMTU4IDEuMzE5LS40OXoiLz48cGF0aCBkPSJNMCAwaDI0djI0SDB6IiBmaWxsPSJub25lIi8+PC9zdmc+;" parent="1" vertex="1">
          <mxGeometry x="1227" y="1650" width="40" height="40" as="geometry" />
        </mxCell>
        <mxCell id="l2Qq47zXoi9bIppQbub_-13" value="" style="shape=flexArrow;endArrow=classic;html=1;rounded=0;strokeWidth=3;exitX=0.5;exitY=1;exitDx=0;exitDy=0;" parent="1" edge="1">
          <mxGeometry width="50" height="50" relative="1" as="geometry">
            <mxPoint x="1243.5" y="1624.5" as="sourcePoint" />
            <mxPoint x="1244" y="1580" as="targetPoint" />
          </mxGeometry>
        </mxCell>
        <mxCell id="l2Qq47zXoi9bIppQbub_-14" value="Task&#xa;Worker&#xa;(Dramatiq)" style="shape=image;verticalLabelPosition=bottom;labelBackgroundColor=none;verticalAlign=top;aspect=fixed;imageAspect=0;image=data:image/svg+xml,PHN2ZyB4bWxucz0iaHR0cDovL3d3dy53My5vcmcvMjAwMC9zdmciIGZpbGw9Im5vbmUiIHZpZXdCb3g9IjAgMCAxNiAxNiIgaGVpZ2h0PSI4MDBweCIgd2lkdGg9IjgwMHB4Ij4mI3hhOyAgPHBhdGggZmlsbD0iIzAwMDAwMCIgZD0iTTUuNzkgMS41NzRoMy44NjZjLjE0IDAgLjI1Mi4xMS4yNTIuMjQ2djUuMTg2YS4yNS4yNSAwIDAxLS4yNTIuMjQ2SDYuMzQ0Yy0uOTc1IDAtMS43NjYuNzctMS43NjYgMS43MnYxLjE2MmEuMjUuMjUgMCAwMS0uMjUzLjI0M0gxLjg2N2EuMjUuMjUgMCAwMS0uMjUzLS4yNDZWNi4xNzdhLjI1LjI1IDAgMDEuMjUyLS4yNDZINy45OGMuNDE4IDAgLjc1Ny0uMzMuNzU3LS43MzdhLjc0Ny43NDcgMCAwMC0uNzU3LS43MzhINS41MzdWMS44MmEuMjUuMjUgMCAwMS4yNTMtLjI0NnptNS42MzIgMi41OTJWMS44MmMwLS45NS0uNzktMS43Mi0xLjc2Ni0xLjcySDUuNzljLS45NzYgMC0xLjc2Ny43Ny0xLjc2NyAxLjcydjIuNjM2SDEuODY3Qy44OSA0LjQ1Ni4xIDUuMjI2LjEgNi4xNzZ2My45NTVjMCAuOTUuNzkgMS43MiAxLjc2NiAxLjcyaDIuNDZjLjA4NSAwIC4xNy0uMDA2LjI1Mi0uMDE3djIuMzQ2YzAgLjk1Ljc5IDEuNzIgMS43NjYgMS43MmgzLjg2NmMuOTc2IDAgMS43NjctLjc3IDEuNzY3LTEuNzJ2LTIuNjM2aDIuMTU2Yy45NzYgMCAxLjc2Ny0uNzcgMS43NjctMS43MlY1Ljg2OGMwLS45NS0uNzktMS43Mi0xLjc2Ny0xLjcyaC0yLjQ1OGMtLjA4NiAwLS4xNy4wMDUtLjI1My4wMTd6bS01LjMzIDUuOTc0VjguOTk0YS4yNS4yNSAwIDAxLjI1Mi0uMjQ2aDMuMzEyYy45NzYgMCAxLjc2Ni0uNzcgMS43NjYtMS43MlY1Ljg2NmEuMjUuMjUgMCAwMS4yNTMtLjI0M2gyLjQ1OGMuMTQgMCAuMjUzLjExLjI1My4yNDZ2My45NTRhLjI1LjI1IDAgMDEtLjI1Mi4yNDZIOC4wMmEuNzQ3Ljc0NyAwIDAwLS43NTcuNzM3YzAgLjQwOC4zMzkuNzM4Ljc1Ny43MzhoMi40NDJ2Mi42MzZhLjI1LjI1IDAgMDEtLjI1My4yNDZINi4zNDRhLjI1LjI1IDAgMDEtLjI1Mi0uMjQ2di00LjA0eiIvPiYjeGE7PC9zdmc+;" parent="1" vertex="1">
          <mxGeometry x="1520" y="1494" width="34" height="34" as="geometry" />
        </mxCell>
        <mxCell id="l2Qq47zXoi9bIppQbub_-15" value="" style="shape=flexArrow;endArrow=classic;html=1;rounded=0;strokeWidth=3;" parent="1" edge="1">
          <mxGeometry width="50" height="50" relative="1" as="geometry">
            <mxPoint x="1300" y="1511" as="sourcePoint" />
            <mxPoint x="1340" y="1510.5" as="targetPoint" />
          </mxGeometry>
        </mxCell>
        <mxCell id="l2Qq47zXoi9bIppQbub_-16" value="Task&#xa;Queue&#xa;(Redis)" style="shape=image;verticalLabelPosition=bottom;labelBackgroundColor=none;verticalAlign=top;aspect=fixed;imageAspect=0;image=data:image/svg+xml,PHN2ZyB4bWxucz0iaHR0cDovL3d3dy53My5vcmcvMjAwMC9zdmciIHZlcnNpb249IjEuMSIgdmlld0JveD0iMCAwIDMyIDMyIiBoZWlnaHQ9IjgwMHB4IiB3aWR0aD0iODAwcHgiIGZpbGw9IiMwMDAwMDAiPiYjeGE7PHRpdGxlPmRhdGFiYXNlPC90aXRsZT4mI3hhOzxwYXRoIGQ9Ik00IDI2LjAxNnEwIDEuNjMyIDEuNiAzLjAwOHQ0LjM4NCAyLjE3NiA2LjAxNiAwLjggNi4wMTYtMC44IDQuMzg0LTIuMTc2IDEuNi0zLjAwOHYtMy4zOTJxMCAxLjYzMi0xLjYzMiAyLjg4dC00LjMyIDEuODU2LTYuMDQ4IDAuNjQtNi4wNDgtMC42NC00LjMyLTEuODU2LTEuNjMyLTIuODh2My4zOTJ6TTQgMjBxMCAxLjYzMiAxLjYgMy4wMDh0NC4zODQgMi4yMDggNi4wMTYgMC44IDYuMDE2LTAuOCA0LjM4NC0yLjIwOCAxLjYtMy4wMDh2LTMuMzZxMCAxLjYtMS42MzIgMi44NDh0LTQuMzIgMS44ODgtNi4wNDggMC42NC02LjA0OC0wLjY0LTQuMzItMS44ODgtMS42MzItMi44NDh2My4zNnpNNCAxNC4wMTZxMCAxLjYzMiAxLjYgMy4wMDh0NC4zODQgMi4xNzYgNi4wMTYgMC44IDYuMDE2LTAuOCA0LjM4NC0yLjE3NiAxLjYtMy4wMDh2LTMuMzkycTAgMS42MzItMS42MzIgMi44OHQtNC4zMiAxLjg1Ni02LjA0OCAwLjY0LTYuMDQ4LTAuNjQtNC4zMi0xLjg1Ni0xLjYzMi0yLjg4djMuMzkyek00IDhxMCAxLjYzMiAxLjYgMy4wMDh0NC4zODQgMi4yMDggNi4wMTYgMC44IDYuMDE2LTAuOCA0LjM4NC0yLjIwOCAxLjYtMy4wMDh2LTEuOTg0cTAtMS42MzItMS42LTMuMDA4dC00LjM4NC0yLjE3Ni02LjAxNi0wLjgzMi02LjAxNiAwLjgzMi00LjM4NCAyLjE3Ni0xLjYgMy4wMDh2MS45ODR6Ii8+JiN4YTs8L3N2Zz4=;" parent="1" vertex="1">
          <mxGeometry x="1370" y="1494" width="34" height="34" as="geometry" />
        </mxCell>
        <mxCell id="6RPw10tFn1hXU-zonjz_-1" value="" style="shape=flexArrow;endArrow=classic;startArrow=classic;html=1;rounded=0;strokeWidth=3;" parent="1" edge="1">
          <mxGeometry width="100" height="100" relative="1" as="geometry">
            <mxPoint x="1430" y="1510.5" as="sourcePoint" />
            <mxPoint x="1493.5" y="1510.5" as="targetPoint" />
          </mxGeometry>
        </mxCell>
      </root>
    </mxGraphModel>
  </diagram>
</mxfile>
